<svg xmlns="http://www.w3.org/2000/svg" xmlns:xlink="http://www.w3.org/1999/xlink" width="130" height="28" viewBox="0 0 130 28">
    <defs>
        <path id="a" d="M129.751 0H0v27.98h129.751V0z"/>
    </defs>
    <g fill="none" fill-rule="evenodd">
        <mask id="b" fill="#fff">
            <use xlink:href="#a"/>
        </mask>
        <path fill="#626262" d="M110.956 23.334c0 .668-.547 1.214-1.216 1.214h-4.444a1.219 1.219 0 0 1-1.216-1.214l-.02-9.91c0-.668.547-1.214 1.216-1.214h4.444c.669 0 1.216.546 1.216 1.214l.02 9.91zm-.453-14.556h-6.01a3.87 3.87 0 0 0-3.873 3.867v.003l.02 11.462v.003a3.87 3.87 0 0 0 3.873 3.867h6.01a3.87 3.87 0 0 0 3.873-3.867l-.02-11.465v-.003a3.87 3.87 0 0 0-3.873-3.867zM35.187 23.31c0 .668-.547 1.214-1.216 1.214h-4.444a1.219 1.219 0 0 1-1.216-1.214l-.02-9.91c0-.669.547-1.215 1.216-1.215h4.444c.668 0 1.215.546 1.215 1.214l.02 9.91zm-.454-14.556h-6.009a3.87 3.87 0 0 0-3.873 3.867v.003l.02 11.462v.003a3.87 3.87 0 0 0 3.873 3.866h6.01a3.87 3.87 0 0 0 3.873-3.866l-.02-11.465v-.003a3.87 3.87 0 0 0-3.874-3.867zM43.033 12.183h5.588c.669 0 1.216.546 1.216 1.214v4.376c0 .668-.547 1.214-1.216 1.214h-5.588v-6.804zm.009 15.789l-.009-5.553h6.37a3.87 3.87 0 0 0 3.874-3.867V12.618c0-2.136-1.737-3.834-3.876-3.834h-9.81l.011 19.188h3.44zM96.15 23.325c0 .668-.547 1.214-1.216 1.214h-5.587V20.12h5.914c.511.144.889.613.889 1.168v2.037zm-6.803-11.102h5.587c.669 0 1.216.547 1.216 1.214v2.037c0 .555-.378 1.025-.889 1.168h-5.914v-4.419zm6.37-3.431h-9.81V27.97h9.81a3.87 3.87 0 0 0 3.873-3.867v-3.595a3.84 3.84 0 0 0-.64-2.128c.403-.61.64-1.341.64-2.128V12.66a3.87 3.87 0 0 0-3.873-3.867zM71.595 24.514v.119l.012-.12h-.012zM67.88 24.58l-4.613.008-.019.001h-5.587v-4.42h5.914l.019.008 4.286-.009.016-3.556-5.88.008v-.002h-4.34v-4.42h4.34l5.88-.008-.002-3.398-13.659.008-.012 19.18 13.658-.008-.001-3.392zM2.04 3.53L14.889.017a.471.471 0 0 1 .248 0L27.983 3.53a.444.444 0 0 1 .043.848L15.179 9.266a.471.471 0 0 1-.334 0L1.998 4.378a.444.444 0 0 1 .043-.848M.627 5.573l13.168 5.028a.447.447 0 0 1 .291.416V27.48a.458.458 0 0 1-.64.412L.28 22.41a.448.448 0 0 1-.28-.412V5.99c0-.315.326-.532.628-.417" mask="url(#b)"/>
        <path fill="#626262" d="M113.813 27.972h4.46l3.509-5.979 3.51 5.98h4.459l-5.635-9.602 5.621-9.579h-4.46l-3.495 5.956-3.496-5.956h-4.46l5.622 9.579zM81.538 8.792V22.4L73.405 8.792h-4.558V27.98h3.44V14.383l8.121 13.59 4.57.007V8.792z" mask="url(#b)"/>
    </g>
</svg>
