<svg xmlns="http://www.w3.org/2000/svg" width="28" height="28" viewBox="0 0 28 28">
    <g fill="#FFF" fill-rule="evenodd">
        <path d="M25.35 20.155a5.35 5.35 0 0 1-5.357 5.343l-12.08-.016a5.35 5.35 0 0 1-5.342-5.356l.016-12.08a5.35 5.35 0 0 1 5.356-5.342l12.08.016a5.35 5.35 0 0 1 5.343 5.356l-.016 12.08zM19.888.078L8.085.063a8.06 8.06 0 0 0-8.07 8.049L0 19.915a8.059 8.059 0 0 0 8.049 8.07L19.852 28a8.06 8.06 0 0 0 8.07-8.049l.015-11.803a8.06 8.06 0 0 0-8.049-8.07z"/>
        <path d="M13.542 19.136a4.684 4.684 0 1 1 .013-9.368 4.684 4.684 0 0 1-.013 9.368m.016-11.91a7.226 7.226 0 1 0-.018 14.451 7.226 7.226 0 0 0 .018-14.451M21.68 5.42a1.806 1.806 0 1 0-.005 3.612 1.806 1.806 0 0 0 .005-3.613"/>
    </g>
</svg>
